<svg width="30" height="27" viewBox="0 0 30 27" fill="none" xmlns="http://www.w3.org/2000/svg">
<path d="M24 26.1978H5.33333C4.97971 26.1978 4.64057 26.0573 4.39052 25.8073C4.14048 25.5572 4 25.2181 4 24.8645V12.8645H0L13.7693 0.347143C14.0148 0.12378 14.3348 0 14.6667 0C14.9986 0 15.3185 0.12378 15.564 0.347143L29.3333 12.8645H25.3333V24.8645C25.3333 25.2181 25.1929 25.5572 24.9428 25.8073C24.6928 26.0573 24.3536 26.1978 24 26.1978ZM6.66667 23.5311H22.6667V10.4071L14.6667 3.13514L6.66667 10.4071V23.5311ZM9.33333 18.1978H20V20.8645H9.33333V18.1978Z" fill="#095DE0"/>
</svg>
