<svg width="24" height="24" viewBox="0 0 24 24" fill="none" xmlns="http://www.w3.org/2000/svg">
<path fill-rule="evenodd" clip-rule="evenodd" d="M12.279 1.55438C12.0999 1.48261 11.9001 1.48261 11.721 1.55438L2.769 5.13488L6.375 6.57638L15.606 2.88488L12.279 1.55438ZM17.625 3.69338L8.394 7.38488L12 8.82638L21.231 5.13488L17.625 3.69338V3.69338ZM22.5 6.24338L12.75 10.1434V22.0264L22.5 18.1264V6.24488V6.24338ZM11.25 22.0279V10.1419L1.5 6.24338V18.1279L11.25 22.0279V22.0279ZM11.1645 0.160876C11.7008 -0.0536253 12.2992 -0.0536253 12.8355 0.160876L23.529 4.43888C23.668 4.49459 23.7872 4.59066 23.8711 4.71471C23.9551 4.83876 24 4.9851 24 5.13488V18.1279C23.9998 18.4276 23.9098 18.7204 23.7417 18.9685C23.5735 19.2166 23.3348 19.4087 23.0565 19.5199L12.279 23.8309C12.0999 23.9026 11.9001 23.9026 11.721 23.8309L0.945 19.5199C0.666377 19.4089 0.427414 19.217 0.258963 18.9688C0.0905126 18.7207 0.000309494 18.4278 0 18.1279L0 5.13488C3.48599e-05 4.9851 0.0449156 4.83876 0.128861 4.71471C0.212805 4.59066 0.331969 4.49459 0.471 4.43888L11.1645 0.160876Z" fill="#97B3F6"/>
</svg>
