<svg width="22" height="24" viewBox="0 0 22 24" fill="none" xmlns="http://www.w3.org/2000/svg">
<path d="M6.2 11.192H5.4V12.792H6.2V11.192ZM15.8 12.792H16.6V11.192H15.8V12.792ZM6.2 15.9888H5.4V17.5888H6.2V15.9888ZM15.8 17.6H16.6V16H15.8V17.6ZM6.2 6.3952H5.4V7.9952H6.2V6.3952ZM12.6 8H13.4V6.4H12.6V8ZM15.8 0.8L16.3664 0.2336L16.1312 0H15.8V0.8ZM20.6 5.6H21.4V5.2688L21.1664 5.0336L20.6 5.6V5.6ZM6.2 12.792H15.8V11.192H6.2V12.792ZM6.2 17.5888L15.8 17.6V16L6.2 15.9888V17.5888ZM6.2 7.9952L12.6 8V6.4L6.2 6.3952V7.9952ZM19 22.4H3V24H19V22.4ZM2.2 21.6V2.4H0.599998V21.6H2.2ZM3 1.6H15.8V0H3V1.6ZM19.8 5.6V21.6H21.4V5.6H19.8ZM15.2336 1.3664L20.0336 6.1664L21.1664 5.0336L16.3664 0.2336L15.2336 1.3664V1.3664ZM3 22.4C2.78783 22.4 2.58434 22.3157 2.43431 22.1657C2.28428 22.0157 2.2 21.8122 2.2 21.6H0.599998C0.599998 22.2365 0.852855 22.847 1.30294 23.2971C1.75303 23.7471 2.36348 24 3 24V22.4ZM19 24C19.6365 24 20.247 23.7471 20.6971 23.2971C21.1471 22.847 21.4 22.2365 21.4 21.6H19.8C19.8 21.8122 19.7157 22.0157 19.5657 22.1657C19.4157 22.3157 19.2122 22.4 19 22.4V24ZM2.2 2.4C2.2 2.18783 2.28428 1.98434 2.43431 1.83431C2.58434 1.68429 2.78783 1.6 3 1.6V0C2.36348 0 1.75303 0.252856 1.30294 0.702944C0.852855 1.15303 0.599998 1.76348 0.599998 2.4H2.2Z" fill="#1F5EF2"/>
</svg>
