<svg width="24" height="24" viewBox="0 0 24 24" fill="none" xmlns="http://www.w3.org/2000/svg">
<path fill-rule="evenodd" clip-rule="evenodd" d="M22 24C22 24 24 24 24 22C24 20 22 14 12 14C2 14 0 20 0 22C0 24 2 24 2 24H22ZM2.01 22.112V22.108V22.112ZM2.044 22H21.956C21.9654 21.9989 21.9747 21.9976 21.984 21.996L22 21.992C21.998 21.5 21.692 20.02 20.336 18.664C19.032 17.36 16.578 16 12 16C7.42 16 4.968 17.36 3.664 18.664C2.308 20.02 2.004 21.5 2 21.992C2.01464 21.9948 2.02931 21.9975 2.044 22V22ZM21.992 22.112V22.108V22.112ZM12 10C13.0609 10 14.0783 9.57857 14.8284 8.82843C15.5786 8.07828 16 7.06087 16 6C16 4.93913 15.5786 3.92172 14.8284 3.17157C14.0783 2.42143 13.0609 2 12 2C10.9391 2 9.92172 2.42143 9.17157 3.17157C8.42143 3.92172 8 4.93913 8 6C8 7.06087 8.42143 8.07828 9.17157 8.82843C9.92172 9.57857 10.9391 10 12 10V10ZM18 6C18 7.5913 17.3679 9.11742 16.2426 10.2426C15.1174 11.3679 13.5913 12 12 12C10.4087 12 8.88258 11.3679 7.75736 10.2426C6.63214 9.11742 6 7.5913 6 6C6 4.4087 6.63214 2.88258 7.75736 1.75736C8.88258 0.632141 10.4087 0 12 0C13.5913 0 15.1174 0.632141 16.2426 1.75736C17.3679 2.88258 18 4.4087 18 6V6Z" fill="#97B3F6"/>
</svg>
